<?xml version="1.0" encoding="UTF-8" standalone="no"?><svg xmlns="http://www.w3.org/2000/svg" style="isolation:isolate" viewBox="0 0 100 24.087" width="100pt" height="32.116"><path d="M90.529.902v1.501c0 .235-.069.417-.207.544a.763.763 0 0 1-.541.192.76.76 0 0 1-.542-.193c-.138-.128-.207-.309-.207-.543V.902h.43v1.501c0 .134.028.233.084.297a.295.295 0 0 0 .235.095c.104 0 .183-.03.237-.091.055-.06.082-.161.082-.301V.902h.429Zm1.852 2.205h-.429l-.674-1.41-.009.003v1.407h-.432V.902h.432l.674 1.409.009-.004V.902h.429v2.205Zm.787 0h-.428V.902h.428v2.205Zm.789-1.861v1.517h.211c.12 0 .213-.052.278-.157a.778.778 0 0 0 .098-.416v-.374a.773.773 0 0 0-.098-.414.31.31 0 0 0-.278-.156h-.211Zm-.431 1.861V.902h.666c.226 0 .413.085.56.257.148.171.222.391.222.661v.371c0 .269-.074.489-.222.66a.706.706 0 0 1-.56.256h-.666Zm2.209-.815h.406l-.198-.78h-.009l-.199.78Zm.494.344h-.582l-.118.471h-.434l.621-2.205h.448l.619 2.205h-.434l-.12-.471Zm1.157-1.39v1.517h.211a.31.31 0 0 0 .278-.157.779.779 0 0 0 .097-.416v-.374a.774.774 0 0 0-.097-.414.311.311 0 0 0-.278-.156h-.211Zm-.431 1.861V.902h.666c.226 0 .413.085.56.257.148.171.221.391.221.661v.371c0 .269-.073.489-.221.66a.706.706 0 0 1-.56.256h-.666Zm2.915-.968h-.741v.625H100v.343h-1.302V.902h1.299v.344h-.868v.55h.741v.343ZM89.488 4.244v1.517h.211c.12 0 .212-.052.278-.156a.783.783 0 0 0 .097-.416v-.375a.774.774 0 0 0-.097-.414.311.311 0 0 0-.278-.156h-.211Zm-.431 1.861V3.9h.666c.226 0 .413.086.56.257.148.171.221.391.221.661v.371c0 .27-.073.49-.221.66a.706.706 0 0 1-.56.256h-.666Zm2.209-.815h.406l-.198-.78h-.009l-.199.78Zm.494.344h-.582l-.118.471h-.435l.621-2.205h.449l.619 2.205h-.435l-.119-.471Zm2.585-.445h-.748v.916h-.432V3.9h1.312v.344h-.88v.601h.748v.344Zm1.742.206.004.009c.002.243-.055.425-.172.548-.117.123-.29.185-.518.185-.229 0-.411-.07-.547-.21-.136-.14-.205-.338-.205-.594v-.659c0-.256.066-.453.198-.595a.694.694 0 0 1 .53-.211c.234 0 .41.063.53.188.12.125.182.311.186.556l-.005.009h-.415c.006-.145-.013-.249-.059-.313-.045-.064-.124-.096-.237-.096a.255.255 0 0 0-.224.114c-.051.076-.076.19-.076.344v.662c0 .156.027.272.082.347a.28.28 0 0 0 .242.114c.104 0 .176-.03.217-.09.041-.06.059-.163.054-.308h.415Zm1.519-1.151h-.497v1.861h-.43V4.244h-.494V3.9h1.421v.344ZM27.01 5.605a2.607 2.607 0 0 0 0-5.215h-3.695a2.608 2.608 0 0 0-2.607 2.608v17.134a2.608 2.608 0 1 0 5.214 0v-5.96h4.843a2.607 2.607 0 1 0 0-5.215h-4.843V5.605h1.088Zm38.981 7.077c-1.44 0-2.403 1.1-2.608 2.608-.166 1.223-1 2.235-2.235 2.235a2.235 2.235 0 0 1-2.235-2.235V7.84a2.235 2.235 0 0 1 2.235-2.235c1.235 0 2.064 1.012 2.235 2.235.205 1.464 1.168 2.607 2.608 2.607a2.607 2.607 0 0 0 2.607-2.607 7.45 7.45 0 0 0-14.9 0v7.45a7.45 7.45 0 0 0 14.9 0 2.607 2.607 0 0 0-2.607-2.608Zm-17.045 0c-1.44 0-2.402 1.1-2.607 2.608-.166 1.223-1.001 2.235-2.235 2.235a2.235 2.235 0 0 1-2.235-2.235V7.84c0-1.235 1-2.235 2.235-2.235 1.234 0 2.064 1.012 2.235 2.235.205 1.464 1.167 2.607 2.607 2.607a2.607 2.607 0 0 0 2.607-2.607 7.45 7.45 0 1 0-14.899 0v7.45a7.45 7.45 0 0 0 7.45 7.449 7.449 7.449 0 0 0 7.449-7.449 2.607 2.607 0 0 0-2.607-2.608Zm22.35 7.845a2.608 2.608 0 1 0 5.215 0 2.607 2.607 0 1 0-5.215 0Zm.61-19.594-.021.025a2.365 2.365 0 0 0-.151.205 2.684 2.684 0 0 0-.104.171l-.028.049a2.9 2.9 0 0 0-.081.169l-.028.064a2.029 2.029 0 0 0-.062.17 1.859 1.859 0 0 0-.071.255l-.013.058a2.33 2.33 0 0 0-.038.248 2.666 2.666 0 0 0-.013.335v11.854a2.608 2.608 0 0 0 5.215 0v-2.015l4.807 8.504.041.064a1.51 1.51 0 0 0 .161.235 1.91 1.91 0 0 0 .174.206c.025.026.049.052.075.077.035.035.072.067.109.1l.08.068c.037.03.075.057.112.084a2.212 2.212 0 0 0 .201.13c.04.024.079.046.12.068l.092.044a2.283 2.283 0 0 0 .225.093c.052.019.104.036.157.051.029.009.058.016.086.023.052.013.104.025.157.035.035.007.071.011.106.017.047.006.094.014.142.018.046.004.092.005.139.007.031.001.062.005.094.005l.021-.002c.052 0 .104-.004.156-.008l.105-.006c.043-.005.086-.014.13-.02.043-.007.086-.013.128-.022.027-.005.055-.014.082-.021.057-.014.115-.028.172-.046l.042-.015c.068-.023.136-.048.203-.077l.031-.016c.069-.031.137-.064.202-.1.003-.003.007-.004.01-.005.015-.008.027-.018.041-.026.056-.034.112-.068.166-.105l.076-.058c.041-.031.083-.062.122-.095.031-.026.059-.054.089-.081.031-.03.063-.059.093-.09s.059-.063.087-.095l.081-.095.073-.098c.026-.037.053-.073.077-.111l.055-.091a2.917 2.917 0 0 0 .114-.213c.023-.051.046-.101.066-.153a2.427 2.427 0 0 0 .082-.238l.02-.08c.014-.054.027-.108.037-.162.007-.034.011-.069.016-.103.007-.048.014-.095.018-.144.004-.046.006-.093.007-.139.001-.031.005-.062.005-.093V2.607a2.607 2.607 0 1 0-5.215 0v7.224l-4.774-8.444a2.487 2.487 0 0 0-.172-.279l-.027-.036a2.805 2.805 0 0 0-.127-.161c-.017-.021-.036-.04-.053-.06A2.687 2.687 0 0 0 75.71.73c-.023-.023-.047-.044-.071-.065a2.268 2.268 0 0 0-.119-.101l-.077-.058a2.746 2.746 0 0 0-.352-.218l-.069-.034a2.938 2.938 0 0 0-.162-.071l-.069-.025a2.355 2.355 0 0 0-.168-.055c-.026-.008-.053-.014-.081-.021a2.201 2.201 0 0 0-.271-.053 1.903 1.903 0 0 0-.294-.025C73.952.003 73.928 0 73.904 0l-.017.001c-.067 0-.134.004-.201.01l-.057.004a2.44 2.44 0 0 0-.206.031l-.051.009a2.049 2.049 0 0 0-.183.047l-.068.018c-.05.016-.101.036-.151.055-.031.012-.062.022-.092.035-.045.019-.089.042-.133.064l-.098.049-.028.014c-.039.022-.075.047-.112.071-.025.016-.051.031-.075.048a2.531 2.531 0 0 0-.153.114l-.044.035a2.347 2.347 0 0 0-.182.167 2.48 2.48 0 0 0-.147.161ZM30.392 2.998a2.607 2.607 0 1 0 5.215 0 2.607 2.607 0 1 0-5.215 0Z" fill-rule="evenodd" fill="#050606"/><path d="M3.029 15.692q.791 0 1.397.384.606.383.939 1.088.334.704.334 1.631 0 .94-.334 1.651-.333.711-.939 1.106-.606.396-1.397.396-.705 0-1.23-.309-.526-.309-.798-.878v1.1H0v-8.715h1.001v3.733q.272-.568.798-.878.525-.309 1.23-.309Zm-.198 5.428q.878 0 1.36-.612.482-.612.482-1.713 0-1.075-.482-1.669-.482-.593-1.36-.593-.878 0-1.354.593-.476.594-.476 1.694t.476 1.7q.476.6 1.354.6Zm6.565-.347 2.04-4.92h1.001l-3.561 8.234H7.85l1.014-2.3-2.547-5.934h1.064l2.015 4.92Z"/></svg>